<mxfile host="Electron" modified="2024-04-19T15:25:37.381Z" agent="Mozilla/5.0 (X11; Linux x86_64) AppleWebKit/537.36 (KHTML, like Gecko) draw.io/24.2.5 Chrome/120.0.6099.109 Electron/28.1.0 Safari/537.36" etag="32BKU_49_54LjM2HrY_H" version="24.2.5" type="device">
  <diagram name="Page-1" id="MGSu49-idK0sleufcpFF">
    <mxGraphModel dx="1562" dy="1023" grid="1" gridSize="10" guides="1" tooltips="1" connect="1" arrows="1" fold="1" page="1" pageScale="1" pageWidth="850" pageHeight="1100" math="0" shadow="0">
      <root>
        <mxCell id="0" />
        <mxCell id="1" parent="0" />
        <mxCell id="rIwgLL_nd4T7EvpAHdd8-36" value="&lt;h1 style=&quot;margin-top: 0px; line-height: 90%; font-size: 11px;&quot;&gt;&lt;font style=&quot;font-size: 11px;&quot;&gt;Kód a legeneráláshoz:&lt;/font&gt;&lt;/h1&gt;&lt;p style=&quot;line-height: 90%; font-size: 11px;&quot;&gt;&lt;font style=&quot;font-size: 11px;&quot;&gt;CREATE TABLE&lt;font style=&quot;font-size: 11px;&quot;&gt; Beers (&lt;/font&gt;&lt;/font&gt;&lt;/p&gt;&lt;p style=&quot;line-height: 90%; font-size: 11px;&quot;&gt;&lt;font style=&quot;font-size: 11px;&quot;&gt;&amp;nbsp; &amp;nbsp; id INT PRIMARY KEY,&lt;/font&gt;&lt;/p&gt;&lt;p style=&quot;line-height: 90%; font-size: 11px;&quot;&gt;&lt;font style=&quot;font-size: 11px;&quot;&gt;&amp;nbsp; &amp;nbsp; label VARCHAR(255),&lt;/font&gt;&lt;/p&gt;&lt;p style=&quot;margin-top: 10px; line-height: 90%; font-size: 11px;&quot;&gt;&lt;font style=&quot;font-size: 11px;&quot;&gt;&amp;nbsp; &amp;nbsp; vol DECIMAL(5, 2),&lt;/font&gt;&lt;/p&gt;&lt;p style=&quot;line-height: 90%; font-size: 11px;&quot;&gt;&lt;font style=&quot;font-size: 11px;&quot;&gt;&amp;nbsp; &amp;nbsp; type VARCHAR(50),&lt;/font&gt;&lt;/p&gt;&lt;p style=&quot;line-height: 90%; font-size: 11px;&quot;&gt;&lt;font style=&quot;font-size: 11px;&quot;&gt;&amp;nbsp; &amp;nbsp; img_url VARCHAR(255),&lt;/font&gt;&lt;/p&gt;&lt;p style=&quot;line-height: 90%; font-size: 11px;&quot;&gt;&lt;font style=&quot;font-size: 11px;&quot;&gt;&amp;nbsp; &amp;nbsp; description TEXT&lt;/font&gt;&lt;/p&gt;&lt;p style=&quot;line-height: 90%; font-size: 11px;&quot;&gt;&lt;font style=&quot;font-size: 11px;&quot;&gt;);&lt;/font&gt;&lt;/p&gt;&lt;p style=&quot;line-height: 90%; font-size: 11px;&quot;&gt;&lt;font style=&quot;font-size: 11px;&quot;&gt;CREATE TABLE Orders (&lt;/font&gt;&lt;/p&gt;&lt;p style=&quot;line-height: 90%; font-size: 11px;&quot;&gt;&lt;font style=&quot;font-size: 11px;&quot;&gt;&amp;nbsp; &amp;nbsp; id INT PRIMARY KEY,&lt;/font&gt;&lt;/p&gt;&lt;p style=&quot;line-height: 90%; font-size: 11px;&quot;&gt;&lt;font style=&quot;font-size: 11px;&quot;&gt;&amp;nbsp; &amp;nbsp; total_cost DECIMAL(10, 2),&lt;/font&gt;&lt;/p&gt;&lt;p style=&quot;line-height: 90%; font-size: 11px;&quot;&gt;&lt;font style=&quot;font-size: 11px;&quot;&gt;&amp;nbsp; &amp;nbsp; user_id INT, -- assuming each order is associated with a user&lt;/font&gt;&lt;/p&gt;&lt;p style=&quot;line-height: 90%; font-size: 11px;&quot;&gt;&lt;font style=&quot;font-size: 11px;&quot;&gt;&amp;nbsp; &amp;nbsp; FOREIGN KEY (user_id) REFERENCES Users(id)&lt;/font&gt;&lt;/p&gt;&lt;p style=&quot;line-height: 90%; font-size: 11px;&quot;&gt;&lt;font style=&quot;font-size: 11px;&quot;&gt;);&lt;/font&gt;&lt;/p&gt;&lt;p style=&quot;line-height: 90%; font-size: 11px;&quot;&gt;&lt;font style=&quot;font-size: 11px;&quot;&gt;CREATE TABLE OrderItems (&lt;/font&gt;&lt;/p&gt;&lt;p style=&quot;line-height: 90%; font-size: 11px;&quot;&gt;&lt;font style=&quot;font-size: 11px;&quot;&gt;&amp;nbsp; &amp;nbsp; id INT PRIMARY KEY,&lt;/font&gt;&lt;/p&gt;&lt;p style=&quot;line-height: 90%; font-size: 11px;&quot;&gt;&lt;font style=&quot;font-size: 11px;&quot;&gt;&amp;nbsp; &amp;nbsp; order_id INT,&lt;/font&gt;&lt;/p&gt;&lt;p style=&quot;line-height: 90%; font-size: 11px;&quot;&gt;&lt;font style=&quot;font-size: 11px;&quot;&gt;&amp;nbsp; &amp;nbsp; beer_id INT,&lt;/font&gt;&lt;/p&gt;&lt;p style=&quot;line-height: 90%; font-size: 11px;&quot;&gt;&lt;font style=&quot;font-size: 11px;&quot;&gt;&amp;nbsp; &amp;nbsp; quantity INT,&lt;/font&gt;&lt;/p&gt;&lt;p style=&quot;line-height: 90%; font-size: 11px;&quot;&gt;&lt;font style=&quot;font-size: 11px;&quot;&gt;&amp;nbsp; &amp;nbsp; price DECIMAL(10, 2),&lt;/font&gt;&lt;/p&gt;&lt;p style=&quot;line-height: 90%; font-size: 11px;&quot;&gt;&lt;font style=&quot;font-size: 11px;&quot;&gt;&amp;nbsp; &amp;nbsp; FOREIGN KEY (order_id) REFERENCES Orders(id),&lt;/font&gt;&lt;/p&gt;&lt;p style=&quot;line-height: 90%; font-size: 11px;&quot;&gt;&lt;font style=&quot;font-size: 11px;&quot;&gt;&amp;nbsp; &amp;nbsp; FOREIGN KEY (beer_id) REFERENCES Beers(id)&lt;/font&gt;&lt;/p&gt;&lt;p style=&quot;line-height: 90%; font-size: 11px;&quot;&gt;&lt;font style=&quot;font-size: 11px;&quot;&gt;);&lt;/font&gt;&lt;/p&gt;&lt;p style=&quot;line-height: 90%; font-size: 11px;&quot;&gt;&lt;font style=&quot;font-size: 11px;&quot;&gt;CREATE TABLE Users (&lt;/font&gt;&lt;/p&gt;&lt;p style=&quot;line-height: 90%; font-size: 11px;&quot;&gt;&lt;font style=&quot;font-size: 11px;&quot;&gt;&amp;nbsp; &amp;nbsp; id INT PRIMARY KEY,&lt;/font&gt;&lt;/p&gt;&lt;p style=&quot;line-height: 90%; font-size: 11px;&quot;&gt;&lt;font style=&quot;font-size: 11px;&quot;&gt;&amp;nbsp; &amp;nbsp; username VARCHAR(50),&lt;/font&gt;&lt;/p&gt;&lt;p style=&quot;line-height: 90%; font-size: 11px;&quot;&gt;&lt;font style=&quot;font-size: 11px;&quot;&gt;&amp;nbsp; &amp;nbsp; password_hash VARCHAR(255), -- store hashed passwords&lt;/font&gt;&lt;/p&gt;&lt;p style=&quot;line-height: 90%; font-size: 11px;&quot;&gt;&lt;font style=&quot;font-size: 11px;&quot;&gt;&amp;nbsp; &amp;nbsp; email VARCHAR(255), -- optional, for notifications or authentication&lt;/font&gt;&lt;/p&gt;&lt;p style=&quot;line-height: 90%; font-size: 11px;&quot;&gt;&lt;font style=&quot;font-size: 11px;&quot;&gt;&amp;nbsp; &amp;nbsp; created_at TIMESTAMP DEFAULT CURRENT_TIMESTAMP,&lt;/font&gt;&lt;/p&gt;&lt;p style=&quot;line-height: 90%; font-size: 11px;&quot;&gt;&lt;font style=&quot;font-size: 11px;&quot;&gt;&amp;nbsp; &amp;nbsp; last_login TIMESTAMP,&lt;/font&gt;&lt;/p&gt;&lt;p style=&quot;line-height: 90%; font-size: 11px;&quot;&gt;&lt;font style=&quot;font-size: 11px;&quot;&gt;&amp;nbsp; &amp;nbsp; -- Add other user-related fields as needed&lt;/font&gt;&lt;/p&gt;&lt;p style=&quot;line-height: 90%; font-size: 11px;&quot;&gt;&lt;font style=&quot;font-size: 11px;&quot;&gt;);&lt;/font&gt;&lt;/p&gt;&lt;p style=&quot;line-height: 90%; font-size: 11px;&quot;&gt;&lt;font style=&quot;font-size: 11px;&quot;&gt;CREATE TABLE Favorites (&lt;/font&gt;&lt;/p&gt;&lt;p style=&quot;line-height: 90%; font-size: 11px;&quot;&gt;&lt;font style=&quot;font-size: 11px;&quot;&gt;&amp;nbsp; &amp;nbsp; user_id INT,&lt;/font&gt;&lt;/p&gt;&lt;p style=&quot;line-height: 90%; font-size: 11px;&quot;&gt;&lt;font style=&quot;font-size: 11px;&quot;&gt;&amp;nbsp; &amp;nbsp; beer_id INT,&lt;/font&gt;&lt;/p&gt;&lt;p style=&quot;line-height: 90%; font-size: 11px;&quot;&gt;&lt;font style=&quot;font-size: 11px;&quot;&gt;&amp;nbsp; &amp;nbsp; PRIMARY KEY (user_id, beer_id),&lt;/font&gt;&lt;/p&gt;&lt;p style=&quot;line-height: 90%; font-size: 11px;&quot;&gt;&lt;font style=&quot;font-size: 11px;&quot;&gt;&amp;nbsp; &amp;nbsp; FOREIGN KEY (user_id) REFERENCES Users(id),&lt;/font&gt;&lt;/p&gt;&lt;p style=&quot;line-height: 90%; font-size: 11px;&quot;&gt;&lt;font style=&quot;font-size: 11px;&quot;&gt;&amp;nbsp; &amp;nbsp; FOREIGN KEY (beer_id) REFERENCES Beers(id)&lt;/font&gt;&lt;/p&gt;&lt;p style=&quot;line-height: 90%; font-size: 11px;&quot;&gt;&lt;font style=&quot;font-size: 11px;&quot;&gt;);&lt;/font&gt;&lt;/p&gt;" style="text;html=1;whiteSpace=wrap;overflow=hidden;rounded=0;textShadow=1;fillColor=none;" parent="1" vertex="1">
          <mxGeometry x="45" y="250" width="580" height="840" as="geometry" />
        </mxCell>
        <mxCell id="cBB7_eiczmn3xFLBJ32k-1" value="Users" style="swimlane;fontStyle=0;childLayout=stackLayout;horizontal=1;startSize=30;horizontalStack=0;resizeParent=1;resizeParentMax=0;resizeLast=0;collapsible=1;marginBottom=0;whiteSpace=wrap;html=1;textShadow=0;labelBackgroundColor=none;sketch=1;curveFitting=1;jiggle=2;shadow=1;" parent="1" vertex="1">
          <mxGeometry x="625" y="130" width="140" height="210" as="geometry" />
        </mxCell>
        <mxCell id="rIwgLL_nd4T7EvpAHdd8-21" value="id" style="text;strokeColor=none;fillColor=none;align=center;verticalAlign=middle;spacingLeft=4;spacingRight=4;overflow=hidden;points=[[0,0.5],[1,0.5]];portConstraint=eastwest;rotatable=0;whiteSpace=wrap;html=1;textShadow=0;labelBackgroundColor=none;sketch=1;curveFitting=1;jiggle=2;shadow=1;" parent="cBB7_eiczmn3xFLBJ32k-1" vertex="1">
          <mxGeometry y="30" width="140" height="30" as="geometry" />
        </mxCell>
        <mxCell id="cBB7_eiczmn3xFLBJ32k-2" value="username" style="text;strokeColor=none;fillColor=none;align=center;verticalAlign=middle;spacingLeft=4;spacingRight=4;overflow=hidden;points=[[0,0.5],[1,0.5]];portConstraint=eastwest;rotatable=0;whiteSpace=wrap;html=1;textShadow=0;labelBackgroundColor=none;sketch=1;curveFitting=1;jiggle=2;shadow=1;" parent="cBB7_eiczmn3xFLBJ32k-1" vertex="1">
          <mxGeometry y="60" width="140" height="30" as="geometry" />
        </mxCell>
        <mxCell id="cBB7_eiczmn3xFLBJ32k-3" value="password" style="text;strokeColor=none;fillColor=none;align=center;verticalAlign=middle;spacingLeft=4;spacingRight=4;overflow=hidden;points=[[0,0.5],[1,0.5]];portConstraint=eastwest;rotatable=0;whiteSpace=wrap;html=1;textShadow=0;labelBackgroundColor=none;sketch=1;curveFitting=1;jiggle=2;shadow=1;" parent="cBB7_eiczmn3xFLBJ32k-1" vertex="1">
          <mxGeometry y="90" width="140" height="30" as="geometry" />
        </mxCell>
        <mxCell id="rIwgLL_nd4T7EvpAHdd8-19" value="created_at" style="text;html=1;align=center;verticalAlign=middle;whiteSpace=wrap;rounded=0;textShadow=0;labelBackgroundColor=none;sketch=1;curveFitting=1;jiggle=2;shadow=1;" parent="cBB7_eiczmn3xFLBJ32k-1" vertex="1">
          <mxGeometry y="120" width="140" height="30" as="geometry" />
        </mxCell>
        <mxCell id="cBB7_eiczmn3xFLBJ32k-4" value="orders" style="text;strokeColor=none;fillColor=none;align=center;verticalAlign=middle;spacingLeft=4;spacingRight=4;overflow=hidden;points=[[0,0.5],[1,0.5]];portConstraint=eastwest;rotatable=0;whiteSpace=wrap;html=1;textShadow=0;labelBackgroundColor=none;sketch=1;curveFitting=1;jiggle=2;shadow=1;" parent="cBB7_eiczmn3xFLBJ32k-1" vertex="1">
          <mxGeometry y="150" width="140" height="30" as="geometry" />
        </mxCell>
        <mxCell id="cBB7_eiczmn3xFLBJ32k-6" value="favorites?" style="text;strokeColor=none;fillColor=none;align=center;verticalAlign=middle;spacingLeft=4;spacingRight=4;overflow=hidden;points=[[0,0.5],[1,0.5]];portConstraint=eastwest;rotatable=0;whiteSpace=wrap;html=1;textShadow=0;labelBackgroundColor=none;sketch=1;curveFitting=1;jiggle=2;shadow=1;" parent="cBB7_eiczmn3xFLBJ32k-1" vertex="1">
          <mxGeometry y="180" width="140" height="30" as="geometry" />
        </mxCell>
        <mxCell id="cBB7_eiczmn3xFLBJ32k-13" value="Orders" style="swimlane;fontStyle=0;childLayout=stackLayout;horizontal=1;startSize=30;horizontalStack=0;resizeParent=1;resizeParentMax=0;resizeLast=0;collapsible=1;marginBottom=0;whiteSpace=wrap;html=1;textShadow=0;labelBackgroundColor=none;sketch=1;curveFitting=1;jiggle=2;shadow=1;" parent="1" vertex="1">
          <mxGeometry x="445" y="70" width="140" height="120" as="geometry" />
        </mxCell>
        <mxCell id="cBB7_eiczmn3xFLBJ32k-14" value="id" style="text;strokeColor=none;fillColor=none;align=center;verticalAlign=middle;spacingLeft=4;spacingRight=4;overflow=hidden;points=[[0,0.5],[1,0.5]];portConstraint=eastwest;rotatable=0;whiteSpace=wrap;html=1;textShadow=0;labelBackgroundColor=none;sketch=1;curveFitting=1;jiggle=2;shadow=1;" parent="cBB7_eiczmn3xFLBJ32k-13" vertex="1">
          <mxGeometry y="30" width="140" height="30" as="geometry" />
        </mxCell>
        <mxCell id="cBB7_eiczmn3xFLBJ32k-15" value="total_cost" style="text;strokeColor=none;fillColor=none;align=center;verticalAlign=middle;spacingLeft=4;spacingRight=4;overflow=hidden;points=[[0,0.5],[1,0.5]];portConstraint=eastwest;rotatable=0;whiteSpace=wrap;html=1;textShadow=0;labelBackgroundColor=none;sketch=1;curveFitting=1;jiggle=2;shadow=1;" parent="cBB7_eiczmn3xFLBJ32k-13" vertex="1">
          <mxGeometry y="60" width="140" height="30" as="geometry" />
        </mxCell>
        <mxCell id="cBB7_eiczmn3xFLBJ32k-16" value="user_id" style="text;strokeColor=none;fillColor=none;align=center;verticalAlign=middle;spacingLeft=4;spacingRight=4;overflow=hidden;points=[[0,0.5],[1,0.5]];portConstraint=eastwest;rotatable=0;whiteSpace=wrap;html=1;textShadow=0;labelBackgroundColor=none;sketch=1;curveFitting=1;jiggle=2;shadow=1;" parent="cBB7_eiczmn3xFLBJ32k-13" vertex="1">
          <mxGeometry y="90" width="140" height="30" as="geometry" />
        </mxCell>
        <mxCell id="rIwgLL_nd4T7EvpAHdd8-12" value="Order_Items" style="swimlane;fontStyle=0;childLayout=stackLayout;horizontal=1;startSize=30;horizontalStack=0;resizeParent=1;resizeParentMax=0;resizeLast=0;collapsible=1;marginBottom=0;whiteSpace=wrap;html=1;textShadow=0;labelBackgroundColor=none;sketch=1;curveFitting=1;jiggle=2;shadow=1;" parent="1" vertex="1">
          <mxGeometry x="85" y="40" width="140" height="150" as="geometry" />
        </mxCell>
        <mxCell id="rIwgLL_nd4T7EvpAHdd8-13" value="id" style="text;strokeColor=none;fillColor=none;align=center;verticalAlign=middle;spacingLeft=4;spacingRight=4;overflow=hidden;points=[[0,0.5],[1,0.5]];portConstraint=eastwest;rotatable=0;whiteSpace=wrap;html=1;textShadow=0;labelBackgroundColor=none;sketch=1;curveFitting=1;jiggle=2;shadow=1;" parent="rIwgLL_nd4T7EvpAHdd8-12" vertex="1">
          <mxGeometry y="30" width="140" height="30" as="geometry" />
        </mxCell>
        <mxCell id="rIwgLL_nd4T7EvpAHdd8-14" value="order_id" style="text;strokeColor=none;fillColor=none;align=center;verticalAlign=middle;spacingLeft=4;spacingRight=4;overflow=hidden;points=[[0,0.5],[1,0.5]];portConstraint=eastwest;rotatable=0;whiteSpace=wrap;html=1;textShadow=0;labelBackgroundColor=none;sketch=1;curveFitting=1;jiggle=2;shadow=1;" parent="rIwgLL_nd4T7EvpAHdd8-12" vertex="1">
          <mxGeometry y="60" width="140" height="30" as="geometry" />
        </mxCell>
        <mxCell id="rIwgLL_nd4T7EvpAHdd8-15" value="beer_id" style="text;strokeColor=none;fillColor=none;align=center;verticalAlign=middle;spacingLeft=4;spacingRight=4;overflow=hidden;points=[[0,0.5],[1,0.5]];portConstraint=eastwest;rotatable=0;whiteSpace=wrap;html=1;textShadow=0;labelBackgroundColor=none;sketch=1;curveFitting=1;jiggle=2;shadow=1;" parent="rIwgLL_nd4T7EvpAHdd8-12" vertex="1">
          <mxGeometry y="90" width="140" height="30" as="geometry" />
        </mxCell>
        <mxCell id="rIwgLL_nd4T7EvpAHdd8-16" value="price" style="text;html=1;align=center;verticalAlign=middle;whiteSpace=wrap;rounded=0;textShadow=0;labelBackgroundColor=none;sketch=1;curveFitting=1;jiggle=2;shadow=1;" parent="rIwgLL_nd4T7EvpAHdd8-12" vertex="1">
          <mxGeometry y="120" width="140" height="30" as="geometry" />
        </mxCell>
        <mxCell id="rIwgLL_nd4T7EvpAHdd8-17" style="edgeStyle=orthogonalEdgeStyle;rounded=0;orthogonalLoop=1;jettySize=auto;html=1;textShadow=0;labelBackgroundColor=none;sketch=1;curveFitting=1;jiggle=2;shadow=1;" parent="1" source="rIwgLL_nd4T7EvpAHdd8-14" target="cBB7_eiczmn3xFLBJ32k-14" edge="1">
          <mxGeometry relative="1" as="geometry" />
        </mxCell>
        <mxCell id="rIwgLL_nd4T7EvpAHdd8-18" style="edgeStyle=orthogonalEdgeStyle;rounded=0;orthogonalLoop=1;jettySize=auto;html=1;textShadow=0;labelBackgroundColor=none;sketch=1;curveFitting=1;jiggle=2;shadow=1;" parent="1" source="rIwgLL_nd4T7EvpAHdd8-15" target="cBB7_eiczmn3xFLBJ32k-8" edge="1">
          <mxGeometry relative="1" as="geometry" />
        </mxCell>
        <mxCell id="rIwgLL_nd4T7EvpAHdd8-22" style="edgeStyle=orthogonalEdgeStyle;rounded=0;orthogonalLoop=1;jettySize=auto;html=1;textShadow=0;labelBackgroundColor=none;sketch=1;curveFitting=1;jiggle=2;shadow=1;" parent="1" source="cBB7_eiczmn3xFLBJ32k-16" target="rIwgLL_nd4T7EvpAHdd8-21" edge="1">
          <mxGeometry relative="1" as="geometry" />
        </mxCell>
        <mxCell id="rIwgLL_nd4T7EvpAHdd8-30" value="Favorites" style="swimlane;fontStyle=0;childLayout=stackLayout;horizontal=1;startSize=30;horizontalStack=0;resizeParent=1;resizeParentMax=0;resizeLast=0;collapsible=1;marginBottom=0;whiteSpace=wrap;html=1;textShadow=0;labelBackgroundColor=none;sketch=1;curveFitting=1;jiggle=2;shadow=1;" parent="1" vertex="1">
          <mxGeometry x="445" y="290" width="140" height="90" as="geometry" />
        </mxCell>
        <mxCell id="rIwgLL_nd4T7EvpAHdd8-31" value="user_id" style="text;strokeColor=none;fillColor=none;align=left;verticalAlign=middle;spacingLeft=4;spacingRight=4;overflow=hidden;points=[[0,0.5],[1,0.5]];portConstraint=eastwest;rotatable=0;whiteSpace=wrap;html=1;textShadow=0;labelBackgroundColor=none;sketch=1;curveFitting=1;jiggle=2;shadow=1;" parent="rIwgLL_nd4T7EvpAHdd8-30" vertex="1">
          <mxGeometry y="30" width="140" height="30" as="geometry" />
        </mxCell>
        <mxCell id="rIwgLL_nd4T7EvpAHdd8-32" value="beer_id" style="text;strokeColor=none;fillColor=none;align=left;verticalAlign=middle;spacingLeft=4;spacingRight=4;overflow=hidden;points=[[0,0.5],[1,0.5]];portConstraint=eastwest;rotatable=0;whiteSpace=wrap;html=1;textShadow=0;labelBackgroundColor=none;sketch=1;curveFitting=1;jiggle=2;shadow=1;" parent="rIwgLL_nd4T7EvpAHdd8-30" vertex="1">
          <mxGeometry y="60" width="140" height="30" as="geometry" />
        </mxCell>
        <mxCell id="rIwgLL_nd4T7EvpAHdd8-34" style="edgeStyle=orthogonalEdgeStyle;rounded=0;orthogonalLoop=1;jettySize=auto;html=1;textShadow=0;labelBackgroundColor=none;sketch=1;curveFitting=1;jiggle=2;shadow=1;" parent="1" source="rIwgLL_nd4T7EvpAHdd8-31" target="rIwgLL_nd4T7EvpAHdd8-21" edge="1">
          <mxGeometry relative="1" as="geometry" />
        </mxCell>
        <mxCell id="rIwgLL_nd4T7EvpAHdd8-35" style="edgeStyle=orthogonalEdgeStyle;rounded=0;orthogonalLoop=1;jettySize=auto;html=1;textShadow=0;labelBackgroundColor=none;sketch=1;curveFitting=1;jiggle=2;shadow=1;" parent="1" source="rIwgLL_nd4T7EvpAHdd8-32" target="cBB7_eiczmn3xFLBJ32k-8" edge="1">
          <mxGeometry relative="1" as="geometry" />
        </mxCell>
        <mxCell id="cBB7_eiczmn3xFLBJ32k-7" value="Beers" style="swimlane;fontStyle=0;childLayout=stackLayout;horizontal=1;startSize=30;horizontalStack=0;resizeParent=1;resizeParentMax=0;resizeLast=0;collapsible=1;marginBottom=0;whiteSpace=wrap;html=1;textShadow=0;labelBackgroundColor=none;sketch=1;curveFitting=1;jiggle=2;shadow=1;" parent="1" vertex="1">
          <mxGeometry x="265" y="140" width="140" height="240" as="geometry" />
        </mxCell>
        <mxCell id="cBB7_eiczmn3xFLBJ32k-8" value="id" style="text;strokeColor=none;fillColor=none;align=center;verticalAlign=middle;spacingLeft=4;spacingRight=4;overflow=hidden;points=[[0,0.5],[1,0.5]];portConstraint=eastwest;rotatable=0;whiteSpace=wrap;html=1;textShadow=0;labelBackgroundColor=none;sketch=1;curveFitting=1;jiggle=2;shadow=1;" parent="cBB7_eiczmn3xFLBJ32k-7" vertex="1">
          <mxGeometry y="30" width="140" height="30" as="geometry" />
        </mxCell>
        <mxCell id="rIwgLL_nd4T7EvpAHdd8-1" value="label" style="text;strokeColor=none;fillColor=none;align=center;verticalAlign=middle;spacingLeft=4;spacingRight=4;overflow=hidden;points=[[0,0.5],[1,0.5]];portConstraint=eastwest;rotatable=0;whiteSpace=wrap;html=1;textShadow=0;labelBackgroundColor=none;sketch=1;curveFitting=1;jiggle=2;shadow=1;" parent="cBB7_eiczmn3xFLBJ32k-7" vertex="1">
          <mxGeometry y="60" width="140" height="30" as="geometry" />
        </mxCell>
        <mxCell id="cBB7_eiczmn3xFLBJ32k-11" value="vol" style="text;strokeColor=none;fillColor=none;align=center;verticalAlign=middle;spacingLeft=4;spacingRight=4;overflow=hidden;points=[[0,0.5],[1,0.5]];portConstraint=eastwest;rotatable=0;whiteSpace=wrap;html=1;textShadow=0;labelBackgroundColor=none;sketch=1;curveFitting=1;jiggle=2;shadow=1;" parent="cBB7_eiczmn3xFLBJ32k-7" vertex="1">
          <mxGeometry y="90" width="140" height="30" as="geometry" />
        </mxCell>
        <mxCell id="cBB7_eiczmn3xFLBJ32k-12" value="type" style="text;strokeColor=none;fillColor=none;align=center;verticalAlign=middle;spacingLeft=4;spacingRight=4;overflow=hidden;points=[[0,0.5],[1,0.5]];portConstraint=eastwest;rotatable=0;whiteSpace=wrap;html=1;textShadow=0;labelBackgroundColor=none;sketch=1;curveFitting=1;jiggle=2;shadow=1;" parent="cBB7_eiczmn3xFLBJ32k-7" vertex="1">
          <mxGeometry y="120" width="140" height="30" as="geometry" />
        </mxCell>
        <mxCell id="cBB7_eiczmn3xFLBJ32k-17" value="img_url" style="text;html=1;align=center;verticalAlign=middle;whiteSpace=wrap;rounded=0;textShadow=0;labelBackgroundColor=none;sketch=1;curveFitting=1;jiggle=2;shadow=1;" parent="cBB7_eiczmn3xFLBJ32k-7" vertex="1">
          <mxGeometry y="150" width="140" height="30" as="geometry" />
        </mxCell>
        <mxCell id="cBB7_eiczmn3xFLBJ32k-10" value="description" style="text;strokeColor=none;fillColor=none;align=center;verticalAlign=middle;spacingLeft=4;spacingRight=4;overflow=hidden;points=[[0,0.5],[1,0.5]];portConstraint=eastwest;rotatable=0;whiteSpace=wrap;html=1;textShadow=0;labelBackgroundColor=none;sketch=1;curveFitting=1;jiggle=2;shadow=1;" parent="cBB7_eiczmn3xFLBJ32k-7" vertex="1">
          <mxGeometry y="180" width="140" height="30" as="geometry" />
        </mxCell>
        <mxCell id="_y7yZE4ueX1vkJ126kSU-1" value="price" style="text;strokeColor=none;fillColor=none;align=center;verticalAlign=middle;spacingLeft=4;spacingRight=4;overflow=hidden;points=[[0,0.5],[1,0.5]];portConstraint=eastwest;rotatable=0;whiteSpace=wrap;html=1;textShadow=0;labelBackgroundColor=none;sketch=1;curveFitting=1;jiggle=2;shadow=1;" vertex="1" parent="cBB7_eiczmn3xFLBJ32k-7">
          <mxGeometry y="210" width="140" height="30" as="geometry" />
        </mxCell>
      </root>
    </mxGraphModel>
  </diagram>
</mxfile>
